<svg xmlns="http://www.w3.org/2000/svg" viewBox="0 0 800 800" role="img" aria-label="Pollinator Garden Kit (demo image)">
  <defs><linearGradient id="g" x1="0" y1="0" x2="1" y2="1"><stop offset="0" stop-color="#f6efdf"/><stop offset="1" stop-color="#dbe9d2"/></linearGradient></defs>
  <rect width="800" height="800" fill="url(#g)"/>
  <circle cx="660" cy="130" r="170" fill="#ffffff" opacity=".35"/>
  <circle cx="120" cy="720" r="200" fill="#ffffff" opacity=".25"/>
  <g >
    <path d="M260 230l140-60 140 60v170l-140 60-140-60Z" fill="#d9b88f"/>
    <path d="M260 230l140 60 140-60M400 290v170" stroke="#a06d47" stroke-width="6" fill="none"/>
    <path d="M400 230c0-40-25-70-70-75 0 45 30 70 70 75Zm0 0c0-40 25-70 70-75 0 45-30 70-70 75Z" fill="#2f5d34"/></g>
  <text x="400" y="570" text-anchor="middle" font-family="Georgia, 'Times New Roman', serif" font-size="38" font-weight="600" fill="#1f3a26">Pollinator Garden Kit</text>
  <rect x="604" y="728" width="172" height="44" rx="22" fill="#1f3a26" opacity=".85"/>
  <text x="690" y="757" text-anchor="middle" font-family="Arial, sans-serif" font-size="20" font-weight="700" fill="#ffffff">Demo image</text>
</svg>
