<svg xmlns="http://www.w3.org/2000/svg" viewBox="0 0 800 800" role="img" aria-label="Genovese Basil Seeds (demo image)">
  <defs><linearGradient id="g" x1="0" y1="0" x2="1" y2="1"><stop offset="0" stop-color="#e9dcc0"/><stop offset="1" stop-color="#f6efdf"/></linearGradient></defs>
  <rect width="800" height="800" fill="url(#g)"/>
  <circle cx="660" cy="130" r="170" fill="#ffffff" opacity=".35"/>
  <circle cx="120" cy="720" r="200" fill="#ffffff" opacity=".25"/>
  <g transform="translate(400 330) scale(1.3) translate(-400 -330)">
    <rect x="290" y="150" width="220" height="300" rx="14" fill="#fffaf0" stroke="#3f7d3a" stroke-width="6"/>
    <path d="M290 210h220" stroke="#3f7d3a" stroke-width="6"/>
    <circle cx="400" cy="325" r="62" fill="#3f7d3a" opacity=".18"/>
    <path d="M400 375v-70c0-30-25-50-55-50 0 32 22 52 55 52m0 12c0-28 22-46 52-46 0 30-22 46-52 46" fill="none" stroke="#3f7d3a" stroke-width="7" stroke-linecap="round"/></g>
  
  <rect x="604" y="728" width="172" height="44" rx="22" fill="#1f3a26" opacity=".85"/>
  <text x="690" y="757" text-anchor="middle" font-family="Arial, sans-serif" font-size="20" font-weight="700" fill="#ffffff">Demo image</text>
</svg>
